<svg width="20" height="20" viewBox="0 0 20 20" fill="none" xmlns="http://www.w3.org/2000/svg">
<path d="M9.99999 18.333C5.41699 18.333 1.66699 14.583 1.66699 10C1.66699 5.41701 5.41699 1.66701 9.99999 1.66701C14.583 1.66701 18.333 5.41701 18.333 10C18.333 14.583 14.583 18.333 9.99999 18.333ZM12.958 6.83301L9.55799 8.92501C9.43558 8.99812 9.33432 9.10186 9.26418 9.22601C9.19404 9.35015 9.15744 9.49042 9.15799 9.63301V13.542C9.16238 13.7079 9.23086 13.8657 9.34906 13.9823C9.46727 14.0988 9.62602 14.165 9.79199 14.167C9.95735 14.1657 10.1156 14.0994 10.2325 13.9825C10.3494 13.8656 10.4157 13.7074 10.417 13.542V9.83401L13.617 7.90901C13.917 7.72501 14.017 7.33401 13.833 7.03301C13.7425 6.89156 13.6001 6.79132 13.4364 6.75391C13.2727 6.7165 13.1009 6.7449 12.958 6.83301Z" fill="url(#paint0_linear_6_288)"/>
<defs>
<linearGradient id="paint0_linear_6_288" x1="9.99999" y1="18.333" x2="9.99999" y2="1.66701" gradientUnits="userSpaceOnUse">
<stop stop-color="#0FDAE7"/>
<stop offset="1" stop-color="#11C1F9"/>
</linearGradient>
</defs>
</svg>
